<?xml version="1.0" encoding="UTF-8" standalone="no"?>
<!-- Created with Inkscape (http://www.inkscape.org/) -->

<svg
   xmlns:dc="http://purl.org/dc/elements/1.1/"
   xmlns:cc="http://creativecommons.org/ns#"
   xmlns:rdf="http://www.w3.org/1999/02/22-rdf-syntax-ns#"
   xmlns:svg="http://www.w3.org/2000/svg"
   xmlns="http://www.w3.org/2000/svg"
   xmlns:sodipodi="http://sodipodi.sourceforge.net/DTD/sodipodi-0.dtd"
   xmlns:inkscape="http://www.inkscape.org/namespaces/inkscape"
   width="40mm"
   height="30mm"
   viewBox="0 0 40 30"
   version="1.1"
   id="svg8"
   inkscape:version="0.92.4 (5da689c313, 2019-01-14)"
   sodipodi:docname="about.svg">
  <defs
     id="defs2" />
  <sodipodi:namedview
     id="base"
     pagecolor="#ffffff"
     bordercolor="#666666"
     borderopacity="1.0"
     inkscape:pageopacity="0.0"
     inkscape:pageshadow="2"
     inkscape:zoom="1.979899"
     inkscape:cx="107.27193"
     inkscape:cy="39.721636"
     inkscape:document-units="mm"
     inkscape:current-layer="layer1"
     showgrid="false"
     inkscape:window-width="1366"
     inkscape:window-height="705"
     inkscape:window-x="1592"
     inkscape:window-y="116"
     inkscape:window-maximized="1" />
  <metadata
     id="metadata5">
    <rdf:RDF>
      <cc:Work
         rdf:about="">
        <dc:format>image/svg+xml</dc:format>
        <dc:type
           rdf:resource="http://purl.org/dc/dcmitype/StillImage" />
        <dc:title></dc:title>
      </cc:Work>
    </rdf:RDF>
  </metadata>
  <g
     inkscape:label="Capa 1"
     inkscape:groupmode="layer"
     id="layer1"
     transform="translate(0,-267)">
    <g
       id="layer1-6"
       inkscape:label="Capa 1"
       transform="translate(-91.172847,201.50391)">
      <polygon
         style="clip-rule:evenodd;fill:#dde0e6;fill-rule:nonzero;image-rendering:optimizeQuality;shape-rendering:geometricPrecision;text-rendering:geometricPrecision"
         class="fil0"
         points="6772,4020 6772,3162 5987,3162 5987,4020 "
         id="polygon15"
         transform="matrix(0.02539918,0,0,0.02539918,-45.135303,-13.047197)" />
      <polygon
         style="clip-rule:evenodd;fill:#f0596e;fill-rule:nonzero;image-rendering:optimizeQuality;shape-rendering:geometricPrecision;text-rendering:geometricPrecision"
         class="fil1"
         points="6719,3959 6719,3222 6040,3222 6040,3959 "
         id="polygon17"
         transform="matrix(0.02539918,0,0,0.02539918,-45.135303,-13.047197)" />
      <path
         style="clip-rule:evenodd;fill:#fefefe;fill-rule:nonzero;stroke-width:0.02539918;image-rendering:optimizeQuality;shape-rendering:geometricPrecision;text-rendering:geometricPrecision"
         inkscape:connector-curvature="0"
         class="fil2"
         d="m 121.63571,78.770839 c -0.48258,-0.558782 -1.09216,-0.228593 -1.09216,-0.228593 0,0 1.29536,-2.844708 0.48258,-4.241663 -0.0762,-0.126996 -0.17779,-0.253992 -0.27939,-0.330189 0.2032,-0.93977 -0.68577,-1.320758 -1.39695,-1.701746 -0.43179,-0.228592 -0.96517,-0.406386 -1.44775,-0.507983 -0.93977,-0.203194 -1.98114,-0.152395 -2.81931,0.30479 -0.93977,0.533383 -1.87954,1.574749 -2.87011,1.346157 -0.20319,0.482584 -0.1778,0.863571 -0.0254,1.447753 0.12699,0.482584 0.40639,0.990568 0.76197,1.422354 0.2286,1.168362 0.73658,2.260527 0.73658,2.260527 0,0 -0.58418,-0.355589 -1.09216,0.228593 -0.48259,0.558782 0.81277,2.006535 1.11756,2.15893 0,0 0.27939,1.117564 1.09216,2.108132 0.30479,0.380987 0.71118,0.711177 1.11757,0.990568 h -0.1016 c 0,0 -0.27939,2.590716 -0.78737,3.479687 h 4.01307 c -0.45719,-0.812773 -0.73658,-3.073301 -0.76198,-3.428889 0.43179,-0.253992 0.86357,-0.63498 1.19376,-1.041366 0.78738,-0.990568 1.09217,-2.108132 1.09217,-2.108132 0.30479,-0.177795 1.60015,-1.600148 1.11756,-2.15893 z"
         id="path19" />
      <path
         style="clip-rule:evenodd;fill:#222124;fill-rule:nonzero;stroke-width:0.02539918;image-rendering:optimizeQuality;shape-rendering:geometricPrecision;text-rendering:geometricPrecision"
         inkscape:connector-curvature="0"
         class="fil3"
         d="m 116.27649,81.259958 v -1.193761 h 1.49855 v 1.193761 z m 0.0254,-1.523951 v -0.91437 c 0.40638,-0.253992 0.73657,-0.584181 0.99057,-0.93977 0.22859,-0.30479 0.33019,-0.60958 0.33019,-0.91437 0,-0.0508 0,-0.0762 0,-0.126996 -0.0254,-0.126996 -0.0508,-0.203194 -0.127,-0.253992 -0.0762,-0.0254 -0.1524,-0.0508 -0.25399,-0.0508 -0.0762,0 -0.1524,0.0254 -0.22859,0.0762 -0.0508,0.0508 -0.1016,0.126996 -0.1016,0.228592 0,0.0508 0,0.101597 0,0.126996 0,0.0254 0,0.0762 0.0254,0.0762 0,0.0254 0.0254,0.0508 0.0254,0.101597 0.0254,0.0508 0.0254,0.0762 0.0508,0.101597 l -1.37156,0.279391 c 0,-0.0254 -0.0254,-0.0762 -0.0508,-0.152395 -0.0254,-0.0508 -0.0254,-0.101597 -0.0508,-0.126996 0,-0.0254 -0.0254,-0.0508 -0.0254,-0.101597 -0.0254,-0.0508 -0.0254,-0.0762 -0.0254,-0.101597 0,-0.0254 0,-0.0762 0,-0.101596 0,-0.0508 0,-0.0762 0,-0.126996 v -0.0254 c 0,-0.177795 0.0254,-0.33019 0.0762,-0.482585 0.0508,-0.152395 0.1524,-0.30479 0.27939,-0.431786 0.127,-0.126996 0.30479,-0.228593 0.53339,-0.30479 0.22859,-0.0762 0.50798,-0.101597 0.81277,-0.101597 0.63498,0 1.11756,0.126996 1.44775,0.380988 0.33019,0.253992 0.50799,0.60958 0.50799,1.066765 0,0.406387 -0.1524,0.812774 -0.43179,1.24456 -0.27939,0.431786 -0.60958,0.736576 -1.01597,0.914371 v 0.685777 h -1.39695 z"
         id="path21" />
      <path
         style="clip-rule:evenodd;fill:#f58a70;fill-rule:nonzero;stroke-width:0.02539918;image-rendering:optimizeQuality;shape-rendering:geometricPrecision;text-rendering:geometricPrecision"
         inkscape:connector-curvature="0"
         class="fil4"
         d="m 97.227103,77.932666 c 0,0 0.457185,0.838173 0.228593,1.066765 0,0 0.634979,0.558782 1.117564,0.33019 0.482584,-0.228593 0.203193,-0.457186 0.203193,-0.457186 0,0 -0.330189,-0.152395 -0.507984,-0.863572 -0.177794,-0.711177 -1.041366,-0.101597 -1.041366,-0.101597 z"
         id="path23" />
      <path
         style="clip-rule:evenodd;fill:#e86954;fill-rule:nonzero;stroke-width:0.02539918;image-rendering:optimizeQuality;shape-rendering:geometricPrecision;text-rendering:geometricPrecision"
         inkscape:connector-curvature="0"
         class="fil5"
         d="m 97.709688,79.177225 c 0.0762,-0.126995 0.177794,-0.253992 0.30479,-0.330189 0.152395,-0.101597 0.330189,-0.152395 0.533382,-0.177794 -0.101596,-0.126996 -0.203193,-0.33019 -0.279391,-0.660379 -0.177794,-0.711177 -1.041366,-0.101597 -1.041366,-0.101597 0,0 0.457185,0.838173 0.228593,1.066766 0,0 0.101596,0.101597 0.253992,0.177794 z"
         id="path25" />
      <path
         style="clip-rule:evenodd;fill:#f58a70;fill-rule:nonzero;stroke-width:0.02539918;image-rendering:optimizeQuality;shape-rendering:geometricPrecision;text-rendering:geometricPrecision"
         inkscape:connector-curvature="0"
         class="fil4"
         d="m 96.820716,76.942097 c 0,0 0.279391,-0.736576 0.736576,-0.761975 0.457186,-0.0254 0.736577,0.0254 0.812774,0.203193 0.0762,0.177795 0.228593,0.63498 0.355589,0.812774 0.126996,0.177795 0.406387,0.380988 0.406387,0.457186 0,0.0762 -0.253992,0.126996 -0.253992,0.177794 0,0.0254 -0.101597,0.634979 -0.177794,0.685778 -0.0762,0.0762 -0.990568,-0.177795 -1.142964,-0.431787 -0.152395,-0.253991 -0.711177,-0.685777 -0.711177,-1.142963 z"
         id="path27" />
      <path
         style="clip-rule:evenodd;fill:#2c2a43;fill-rule:nonzero;stroke-width:0.02539918;image-rendering:optimizeQuality;shape-rendering:geometricPrecision;text-rendering:geometricPrecision"
         inkscape:connector-curvature="0"
         class="fil6"
         d="m 97.735087,76.916698 c 0.126996,0.0762 0.406387,0.152395 0.863572,-0.101597 0.457185,-0.253991 0.152395,-1.320757 -0.838173,-1.168362 -0.990568,0.177794 -0.914371,0.533383 -1.092165,0.609581 -0.177794,0.101596 -0.30479,0.203193 -0.380988,0.431786 -0.101596,0.355588 -0.0762,0.787374 0.431787,1.142963 0.507983,0.380988 0.812773,0.279391 0.812773,0.279391 0,-0.126996 -0.0254,-0.330189 -0.126996,-0.380988 -0.0508,-0.0254 -0.101596,-0.0254 -0.177794,-0.0762 -0.126996,-0.101597 -0.0762,-0.355589 0.152395,-0.355589 0.101597,0 0.177794,0.203194 0.253992,0.253992 0.0762,0.0762 0.126996,0.0508 0.152395,0.0254 0.0762,-0.0254 0.101597,-0.253992 -0.0762,-0.482584 -0.126996,-0.152395 -0.126996,-0.30479 0,-0.228593 z"
         id="path29" />
      <path
         style="clip-rule:evenodd;fill:#2c2a43;fill-rule:nonzero;stroke-width:0.02539918;image-rendering:optimizeQuality;shape-rendering:geometricPrecision;text-rendering:geometricPrecision"
         inkscape:connector-curvature="0"
         class="fil6"
         d="m 95.703152,92.587992 c 0,0 -0.406387,0.812774 -0.30479,0.965169 0.101597,0.177794 1.803342,0.888971 2.006535,0.761976 0.203194,-0.101597 0.203194,-0.406387 -0.101596,-0.63498 -0.355589,-0.253992 -0.584181,-0.228593 -0.787375,-0.406387 -0.203193,-0.203193 0,-0.558782 0,-0.558782 l -0.787375,-0.152395 z"
         id="path31" />
      <path
         style="clip-rule:evenodd;fill:#2c2a43;fill-rule:nonzero;stroke-width:0.02539918;image-rendering:optimizeQuality;shape-rendering:geometricPrecision;text-rendering:geometricPrecision"
         inkscape:connector-curvature="0"
         class="fil6"
         d="m 100.3512,92.816585 c 0,0 0.0508,0.93977 0.2032,1.066765 0.15239,0.126997 2.00653,0.101597 2.15893,-0.0762 0.15239,-0.177794 0.0508,-0.406387 -0.33019,-0.482585 -0.33019,-0.0762 -0.58418,0 -0.86358,-0.101596 -0.22859,-0.101594 -0.35558,-0.609578 -0.35558,-0.609578 z"
         id="path33" />
      <path
         style="clip-rule:evenodd;fill:#33c1d9;fill-rule:nonzero;stroke-width:0.02539918;image-rendering:optimizeQuality;shape-rendering:geometricPrecision;text-rendering:geometricPrecision"
         inkscape:connector-curvature="0"
         class="fil7"
         d="m 99.970215,83.190296 -2.412923,0.152395 c 0,0 1.803342,4.31786 2.057334,4.851243 0.253992,0.533383 0.634984,4.825844 0.634984,4.825844 l 1.11756,-0.177794 c 0,0 -0.22859,-4.394058 -0.30479,-4.749647 -0.40639,-2.489119 -1.117565,-4.876642 -1.117565,-4.876642 z"
         id="path35" />
      <path
         style="clip-rule:evenodd;fill:#1fadce;fill-rule:nonzero;stroke-width:0.02539918;image-rendering:optimizeQuality;shape-rendering:geometricPrecision;text-rendering:geometricPrecision"
         inkscape:connector-curvature="0"
         class="fil8"
         d="m 99.132042,84.968238 c 0.0762,-0.406387 0.126995,-0.939769 0.228592,-1.320757 0.0254,-0.152395 0.253992,-0.177794 0.279391,-0.330189 -0.0254,-0.0254 -0.0762,-0.0508 -0.101597,-0.101597 l -2.006535,0.126996 c 0,0 1.803342,4.31786 2.057334,4.851243 0.0254,0.0508 0.0508,0.126996 0.101597,0.253992 0,-0.0762 0,-0.177794 0,-0.253992 -0.0508,-0.711177 -0.660379,-2.743111 -0.558782,-3.200297 z"
         id="path37" />
      <path
         style="clip-rule:evenodd;fill:#33c1d9;fill-rule:nonzero;stroke-width:0.02539918;image-rendering:optimizeQuality;shape-rendering:geometricPrecision;text-rendering:geometricPrecision"
         inkscape:connector-curvature="0"
         class="fil7"
         d="m 99.284437,83.393489 h -2.057334 c 0,0 -0.355588,0.736576 -0.228592,1.625548 0.126995,0.888971 -0.152396,2.590716 -0.152396,2.819309 -0.0254,0.228592 -1.092164,3.936873 -1.244559,4.775045 l 0.939769,0.33019 c 0,0 1.54935,-4.546453 1.625548,-4.64805 0.0508,-0.101597 1.117564,-4.95284 1.117564,-4.95284 z"
         id="path39" />
      <path
         style="clip-rule:evenodd;fill:#f58a70;fill-rule:nonzero;stroke-width:0.02539918;image-rendering:optimizeQuality;shape-rendering:geometricPrecision;text-rendering:geometricPrecision"
         inkscape:connector-curvature="0"
         class="fil4"
         d="m 100.09721,82.326724 c 0,0 0.40639,0.584181 0.68578,0.533382 0.27939,-0.0508 2.26053,-1.346156 2.26053,-1.346156 l -0.40639,-0.279391 c 0,0 -1.57475,1.066765 -1.72715,1.041366 -0.0762,-0.0254 -0.50798,-1.092165 -0.83817,-1.904938 -0.431785,-0.990568 -0.660377,-1.142963 -0.660377,-1.142963 l 0.711177,3.0987 z"
         id="path41" />
      <path
         style="clip-rule:evenodd;fill:#e86954;fill-rule:nonzero;stroke-width:0.02539918;image-rendering:optimizeQuality;shape-rendering:geometricPrecision;text-rendering:geometricPrecision"
         inkscape:connector-curvature="0"
         class="fil5"
         d="m 100.09721,82.326724 c 0,0 0.40639,0.584181 0.68578,0.533382 0.27939,-0.0508 2.26053,-1.346156 2.26053,-1.346156 l -0.40639,-0.279391 c 0,0 -1.57475,1.066765 -1.72715,1.041366 -0.0762,-0.0254 -0.53338,-1.24456 -0.86357,-1.981136 -0.457183,-1.015967 -0.634977,-1.066765 -0.634977,-1.066765 l 0.711177,3.0987 z"
         id="path43" />
      <path
         style="clip-rule:evenodd;fill:#f0596e;fill-rule:nonzero;stroke-width:0.02539918;image-rendering:optimizeQuality;shape-rendering:geometricPrecision;text-rendering:geometricPrecision"
         inkscape:connector-curvature="0"
         class="fil1"
         d="m 100.275,80.701176 c 0,0 -0.17779,-0.380987 -0.22859,-0.482584 -0.457183,-0.914371 -0.634977,-0.990568 -0.634977,-0.990568 l 0.406386,1.777942 c 0.152396,-0.0762 0.380991,-0.177794 0.457181,-0.30479 z"
         id="path45" />
      <path
         style="clip-rule:evenodd;fill:#e73c56;fill-rule:nonzero;stroke-width:0.02539918;image-rendering:optimizeQuality;shape-rendering:geometricPrecision;text-rendering:geometricPrecision"
         inkscape:connector-curvature="0"
         class="fil9"
         d="m 100.275,80.701176 c 0,0 -0.17779,-0.380987 -0.22859,-0.482584 -0.457183,-0.914371 -0.634977,-0.990568 -0.634977,-0.990568 l 0.406386,1.777942 c 0.152396,-0.0762 0.380991,-0.177794 0.457181,-0.30479 z"
         id="path47" />
      <path
         style="clip-rule:evenodd;fill:#f0596e;fill-rule:nonzero;stroke-width:0.02539918;image-rendering:optimizeQuality;shape-rendering:geometricPrecision;text-rendering:geometricPrecision"
         inkscape:connector-curvature="0"
         class="fil1"
         d="m 96.820716,84.130065 c 0,0 1.85414,0.457186 3.428894,-0.101596 0,0 -0.330194,-1.523951 -0.330194,-2.362124 0,-0.711177 -0.228592,-2.209729 -0.584181,-2.46372 -0.355588,-0.253992 -0.584181,-0.33019 -0.584181,-0.33019 0,0 -0.126996,0.30479 -0.406387,0.380988 -0.279391,0.0762 -0.838173,-0.30479 -0.838173,-0.30479 0,0 -1.117564,0.431786 -1.269959,0.685777 -0.30479,0.507984 0.507984,1.930338 0.685778,2.666914 0.177794,0.736577 -0.101597,1.828741 -0.101597,1.828741 z"
         id="path49" />
      <path
         style="clip-rule:evenodd;fill:#e73c56;fill-rule:nonzero;stroke-width:0.02539918;image-rendering:optimizeQuality;shape-rendering:geometricPrecision;text-rendering:geometricPrecision"
         inkscape:connector-curvature="0"
         class="fil9"
         d="m 98.293869,84.28246 c -0.0762,-0.330189 -0.0762,-0.685777 -0.126996,-1.041366 -0.0254,-0.30479 -0.0508,-0.584181 0.0254,-0.863572 -0.0254,-0.0762 -0.0508,-0.152395 -0.0762,-0.228593 -0.101597,-0.330189 -0.0762,-1.092164 -0.482585,-1.473152 -0.228593,-0.228593 -0.507984,-0.558782 -0.863572,-0.60958 -0.406387,-0.0762 -0.203194,-0.0762 -0.584181,-0.152396 0.0254,0.126997 -0.177795,0.406388 -0.101597,0.584182 0.228593,0.584181 0.711177,1.320757 0.838173,1.803341 0.177794,0.736577 -0.101597,1.828741 -0.101597,1.828741 0,0 0.63498,0.152395 1.473153,0.177795 z"
         id="path51" />
      <path
         style="clip-rule:evenodd;fill:#2c2a43;fill-rule:nonzero;stroke-width:0.02539918;image-rendering:optimizeQuality;shape-rendering:geometricPrecision;text-rendering:geometricPrecision"
         inkscape:connector-curvature="0"
         class="fil6"
         d="m 104.26268,80.015398 c -0.83818,-1.777942 -0.0762,-3.860675 1.67634,-4.698848 1.77794,-0.838173 3.86068,-0.0762 4.69885,1.676346 0.83817,1.777943 0.0762,3.860675 -1.67635,4.698848 -1.77794,0.838173 -3.86067,0.0762 -4.69884,-1.676346 z m 5.15603,2.641515 c 2.28593,-1.092165 3.27649,-3.809877 2.18433,-6.121202 -1.09217,-2.285926 -3.80988,-3.276495 -6.1212,-2.18433 -2.08274,0.990568 -3.0987,3.352692 -2.41293,5.511622 L 96.414329,83.0633 c -0.330189,0.152395 -0.457185,0.533383 -0.30479,0.863572 v 0 c 0.152395,0.330189 0.533383,0.457185 0.863572,0.30479 l 6.654589,-3.200297 c 1.24456,1.87954 3.68288,2.616116 5.79101,1.625548 z"
         id="path53" />
      <path
         style="clip-rule:evenodd;fill:#f58a70;fill-rule:nonzero;stroke-width:0.02539918;image-rendering:optimizeQuality;shape-rendering:geometricPrecision;text-rendering:geometricPrecision"
         inkscape:connector-curvature="0"
         class="fil4"
         d="m 97.379498,81.234559 c 0,0 0.584181,1.21916 0.711177,1.21916 0.126996,0 2.260525,-0.152395 2.438325,-0.253991 0.10159,-0.0508 0.15239,-0.126996 0.22859,-0.203194 0.0254,-0.0254 0.0762,-0.0508 0.1016,-0.0762 0.0508,-0.0254 0.10159,-0.0508 0.12699,-0.0762 0.0254,-0.0254 0.1524,-0.203193 0.22859,-0.177794 0.0508,0.0254 0.0508,0.0508 0.0508,0.101597 0,0.0508 -0.0762,0.101597 -0.12699,0.152395 -0.0254,0.0254 -0.0762,0.0762 -0.0762,0.126996 0.0254,0.0508 0.12699,-0.0254 0.15239,-0.0508 0.0508,-0.0254 0.0762,-0.0508 0.1016,-0.0762 0.0254,-0.0254 0.0508,-0.0762 0.1016,-0.126996 l 0.0508,-0.0762 c 0.0254,-0.0508 0.0508,-0.0762 0.0762,-0.126995 0.0254,-0.0254 0.0508,-0.0762 0.1016,-0.0508 0.0508,0.0254 0,0.101597 -0.0254,0.126996 -0.0254,0.0254 -0.0254,0.0762 -0.0508,0.101597 l -0.0254,0.101597 c 0.0508,-0.0254 0.0762,-0.101597 0.127,-0.126997 0.0254,-0.0254 0.12699,-0.203193 0.17779,-0.177794 0.0762,0.0508 -0.0254,0.177794 -0.0508,0.228593 l -0.0762,0.101596 -0.0508,0.0762 c 0.0762,0 0.12699,-0.126996 0.17779,-0.177794 0.0254,-0.0254 0.127,-0.126996 0.127,-0.0254 0,0.0508 -0.0254,0.0762 -0.0508,0.101597 -0.0254,0.0508 -0.0762,0.101596 -0.127,0.126995 -0.0254,0.0254 -0.0762,0.0762 -0.0762,0.0762 0.0508,0 0.17779,-0.152395 0.22859,-0.101597 0.0254,0.0254 0,0.101597 -0.0254,0.126996 -0.127,0.152395 -0.33019,0.253992 -0.50798,0.330189 -0.1778,0.101597 -0.38099,0.177795 -0.55879,0.253992 -0.27939,0.101597 -2.64151,0.838173 -2.920901,0.812774 -0.279391,-0.0254 -1.041367,-1.473152 -1.24456,-1.904938 -0.203194,-0.431787 0.736576,-0.33019 0.736576,-0.33019 z"
         id="path55" />
      <path
         style="clip-rule:evenodd;fill:#f0596e;fill-rule:nonzero;stroke-width:0.02539918;image-rendering:optimizeQuality;shape-rendering:geometricPrecision;text-rendering:geometricPrecision"
         inkscape:connector-curvature="0"
         class="fil1"
         d="m 96.592124,81.894937 c 0,0 0.736576,-0.27939 1.168362,-0.660378 0,0 -0.711177,-2.209729 -1.422354,-1.701745 -0.812774,0.584181 0.253992,2.387523 0.253992,2.387523 z"
         id="path57" />
      <path
         style="clip-rule:evenodd;fill:#f58a70;fill-rule:nonzero;stroke-width:0.02539918;image-rendering:optimizeQuality;shape-rendering:geometricPrecision;text-rendering:geometricPrecision"
         inkscape:connector-curvature="0"
         class="fil4"
         d="m 102.63713,81.386954 c 0.0254,-0.0254 0.0762,0 0.15239,0.0508 -0.0762,-0.101596 -0.17779,-0.203193 -0.0762,-0.228592 0.10159,-0.0254 0.15239,0.126996 0.22859,0.177794 -0.0254,-0.0508 -0.25399,-0.203194 -0.1778,-0.330189 0.0508,-0.0762 0.2794,0.203193 0.33019,0.253992 -0.0508,-0.0508 -0.25399,-0.253992 -0.12699,-0.304791 0.10159,-0.0508 0.22859,0.152395 0.30479,0.203194 0.0508,0.0508 0.12699,0.0762 0.12699,0.152395 0.0254,0.126996 -0.17779,0.228593 -0.27939,0.253992 -0.12699,0.0254 -0.27939,0 -0.40638,-0.0762 -0.0762,-0.0508 -0.127,-0.152395 -0.0762,-0.177794 z"
         id="path59" />
    </g>
  </g>
</svg>
