<?xml version="1.0" encoding="UTF-8" standalone="no"?>
<!-- Created with Inkscape (http://www.inkscape.org/) -->

<svg
   xmlns:dc="http://purl.org/dc/elements/1.1/"
   xmlns:cc="http://creativecommons.org/ns#"
   xmlns:rdf="http://www.w3.org/1999/02/22-rdf-syntax-ns#"
   xmlns:svg="http://www.w3.org/2000/svg"
   xmlns="http://www.w3.org/2000/svg"
   xmlns:sodipodi="http://sodipodi.sourceforge.net/DTD/sodipodi-0.dtd"
   xmlns:inkscape="http://www.inkscape.org/namespaces/inkscape"
   width="190mm"
   height="180mm"
   viewBox="0 0 190 180"
   version="1.1"
   id="svg2416"
   inkscape:version="0.92.4 (5da689c313, 2019-01-14)"
   sodipodi:docname="contact2.svg">
  <defs
     id="defs2410" />
  <sodipodi:namedview
     id="base"
     pagecolor="#ffffff"
     bordercolor="#666666"
     borderopacity="1.0"
     inkscape:pageopacity="0.0"
     inkscape:pageshadow="2"
     inkscape:zoom="0.35"
     inkscape:cx="870"
     inkscape:cy="399.09961"
     inkscape:document-units="mm"
     inkscape:current-layer="layer1"
     showgrid="false"
     inkscape:window-width="1366"
     inkscape:window-height="705"
     inkscape:window-x="1592"
     inkscape:window-y="116"
     inkscape:window-maximized="1" />
  <metadata
     id="metadata2413">
    <rdf:RDF>
      <cc:Work
         rdf:about="">
        <dc:format>image/svg+xml</dc:format>
        <dc:type
           rdf:resource="http://purl.org/dc/dcmitype/StillImage" />
        <dc:title></dc:title>
      </cc:Work>
    </rdf:RDF>
  </metadata>
  <g
     inkscape:label="Capa 1"
     inkscape:groupmode="layer"
     id="layer1"
     transform="translate(0,-117)">
    <polygon
       transform="matrix(0.13393324,0,0,0.13646199,-725.28168,132.7492)"
       id="polygon1133"
       points="6057,797 6240,797 6258,1062 6039,1062 "
       class="fil6"
       style="clip-rule:evenodd;fill:#2c2a43;fill-rule:nonzero;image-rendering:optimizeQuality;shape-rendering:geometricPrecision;text-rendering:geometricPrecision" />
    <path
       id="path1135"
       d="m 116.75658,271.80393 c -0.40181,-0.54586 -0.93753,-0.81874 -1.6072,-0.81874 H 81.264285 c -0.66967,0 -1.2054,0.27293 -1.6072,0.81874 l -4.4198,6.68664 c -0.8036,1.36461 0,3.00216 1.6072,3.00216 h 42.724695 c 1.47327,0 2.4108,-1.77401 1.6072,-3.00216 z"
       class="fil6"
       inkscape:connector-curvature="0"
       style="clip-rule:evenodd;fill:#2c2a43;fill-rule:nonzero;stroke-width:0.13519169;image-rendering:optimizeQuality;shape-rendering:geometricPrecision;text-rendering:geometricPrecision" />
    <path
       id="path1137"
       d="M 170.19595,251.06174 H 26.351655 c -4.55373,0 -8.30386,-3.82095 -8.30386,-8.46065 v -92.65771 c 0,-4.6397 3.75013,-8.46065 8.30386,-8.46065 H 170.19595 c 4.55372,0 8.30387,3.82095 8.30387,8.46065 v 92.65771 c 0,4.6397 -3.75015,8.46065 -8.30387,8.46065 z"
       class="fil6"
       inkscape:connector-curvature="0"
       style="clip-rule:evenodd;fill:#2c2a43;fill-rule:nonzero;stroke-width:0.13519169;image-rendering:optimizeQuality;shape-rendering:geometricPrecision;text-rendering:geometricPrecision" />
    <polygon
       transform="matrix(0.13393324,0,0,0.13646199,-725.28168,132.7492)"
       id="polygon1139"
       points="6692,118 5605,118 5605,806 6692,806 "
       class="fil7"
       style="clip-rule:evenodd;fill:#33c1d9;fill-rule:nonzero;image-rendering:optimizeQuality;shape-rendering:geometricPrecision;text-rendering:geometricPrecision" />
    <polygon
       transform="matrix(0.13393324,0,0,0.13646199,-725.28168,132.7492)"
       id="polygon1141"
       points="6299,583 6239,583 6239,805 6299,805 "
       class="fil10"
       style="clip-rule:evenodd;fill:#c6cad6;fill-rule:nonzero;image-rendering:optimizeQuality;shape-rendering:geometricPrecision;text-rendering:geometricPrecision" />
    <polygon
       transform="matrix(0.13393324,0,0,0.13646199,-725.28168,132.7492)"
       id="polygon1143"
       points="6299,583 6239,583 6239,653 6299,653 "
       class="fil30"
       style="clip-rule:evenodd;fill:#8f94b0;fill-rule:nonzero;image-rendering:optimizeQuality;shape-rendering:geometricPrecision;text-rendering:geometricPrecision" />
    <path
       id="path1145"
       d="M 139.92704,165.3636 H 92.782531 v 48.8534 h 65.895149 v -29.74871 c 0,-10.50759 -8.43779,-19.10469 -18.75064,-19.10469 z"
       class="fil1"
       inkscape:connector-curvature="0"
       style="clip-rule:evenodd;fill:#f0596e;fill-rule:nonzero;stroke-width:0.13519169;image-rendering:optimizeQuality;shape-rendering:geometricPrecision;text-rendering:geometricPrecision" />
    <path
       id="path1147"
       d="M 111.66712,214.217 H 73.764025 v -29.74871 c 0,-10.50759 8.43779,-19.10469 18.750646,-19.10469 h 0.40181 c 10.312859,0 18.750659,8.5971 18.750659,19.10469 z"
       class="fil1"
       inkscape:connector-curvature="0"
       style="clip-rule:evenodd;fill:#f0596e;fill-rule:nonzero;stroke-width:0.13519169;image-rendering:optimizeQuality;shape-rendering:geometricPrecision;text-rendering:geometricPrecision" />
    <path
       id="path1149"
       d="M 108.45272,210.12311 H 76.978415 V 185.4235 c 0,-8.73358 6.96453,-15.82955 15.536256,-15.82955 h 0.26787 c 8.571729,0 15.536259,7.09597 15.536259,15.82955 v 24.69961 z"
       class="fil6"
       inkscape:connector-curvature="0"
       style="clip-rule:evenodd;fill:#2c2a43;fill-rule:nonzero;stroke-width:0.13519169;image-rendering:optimizeQuality;shape-rendering:geometricPrecision;text-rendering:geometricPrecision" />
    <polygon
       transform="matrix(0.13393324,0,0,0.13646199,-725.28168,132.7492)"
       id="polygon1151"
       points="6142,570 5873,570 5873,597 6142,597 "
       class="fil1"
       style="clip-rule:evenodd;fill:#f0596e;fill-rule:nonzero;image-rendering:optimizeQuality;shape-rendering:geometricPrecision;text-rendering:geometricPrecision" />
    <path
       id="path1153"
       d="m 128.67664,191.56427 c 0,1.91048 1.07147,3.41156 2.67867,3.41156 1.74113,0 2.67866,-1.50108 2.67866,-3.41156 0,-1.77401 -1.07147,-3.27508 -2.8126,-3.27508 -1.47326,0 -2.54473,1.50107 -2.54473,3.27508 z m 9.91106,4.63975 c 1.07147,0 2.27687,-1.91047 2.27687,-4.50328 0,-5.32203 -3.34834,-9.41586 -8.97353,-9.41586 -5.2234,0 -9.37533,4.2303 -9.37533,9.55233 0,5.18556 3.88406,9.00651 8.97353,9.00651 1.6072,0 3.6162,-0.54587 5.22339,-1.77401 l 1.20541,2.18341 c -1.6072,1.22814 -4.28587,2.04689 -6.4288,2.04689 -6.69666,0 -11.65219,-4.91263 -11.65219,-11.59927 0,-6.8231 5.35733,-12.00861 12.05399,-12.00861 6.69666,0 11.65219,5.04904 11.65219,11.87214 0,4.23035 -2.27687,6.82311 -5.2234,6.82311 -1.6072,0 -2.81259,-0.68228 -3.21439,-2.18336 v -0.27293 c -1.07147,1.50108 -2.54473,2.18336 -4.15193,2.18336 -3.08047,0 -6.027,-2.59276 -6.027,-6.41371 0,-3.54802 2.14293,-6.55017 5.6252,-6.55017 2.14293,0 3.6162,1.50108 3.6162,1.77401 v -1.36461 h 3.34832 v 9.41586 c 0,0.95526 0.40182,1.36461 1.07147,1.36461 z"
       class="fil2"
       inkscape:connector-curvature="0"
       style="clip-rule:evenodd;fill:#fefefe;fill-rule:nonzero;stroke-width:0.13519169;image-rendering:optimizeQuality;shape-rendering:geometricPrecision;text-rendering:geometricPrecision" />
    <path
       id="path1155"
       d="m 100.41673,220.6307 c 0.26788,-7.6419 5.35733,-14.05561 8.03599,-16.92129 v -1.63755 H 83.809015 c -5.08946,0 -8.03599,2.59276 -10.71466,6.95957 -2.009,3.13862 -3.75013,7.23246 -3.88406,11.59927 -0.40182,10.37113 1.87506,15.28375 -4.8216,22.10686 -6.56273,6.82305 -9.50926,10.78047 -7.63419,21.83387 h 31.340374 c -2.009004,-11.18987 0.93753,-15.01082 7.634182,-21.83387 6.562729,-6.82311 4.419799,-11.8722 4.821599,-22.10686 z"
       class="fil0"
       inkscape:connector-curvature="0"
       style="clip-rule:evenodd;fill:#dde0e6;fill-rule:nonzero;stroke-width:0.13519169;image-rendering:optimizeQuality;shape-rendering:geometricPrecision;text-rendering:geometricPrecision" />
    <path
       id="path1157"
       d="M 104.03292,204.39174 H 80.996415 c -0.26787,0.27293 -0.53573,0.68228 -0.8036,1.09168 h 23.036515 c 0.26787,-0.4094 0.53573,-0.68234 0.80359,-1.09168 z"
       class="fil31"
       inkscape:connector-curvature="0"
       style="clip-rule:evenodd;fill:#9490a6;fill-rule:nonzero;stroke-width:0.13519169;image-rendering:optimizeQuality;shape-rendering:geometricPrecision;text-rendering:geometricPrecision" />
    <path
       id="path1159"
       d="M 100.41673,209.30437 H 77.380225 c -0.26788,0.27293 -0.40182,0.68228 -0.66967,1.09168 h 23.036516 c 0.13393,-0.4094 0.401809,-0.68234 0.669659,-1.09168 z"
       class="fil31"
       inkscape:connector-curvature="0"
       style="clip-rule:evenodd;fill:#9490a6;fill-rule:nonzero;stroke-width:0.13519169;image-rendering:optimizeQuality;shape-rendering:geometricPrecision;text-rendering:geometricPrecision" />
    <path
       id="path1161"
       d="M 98.005931,214.217 H 74.969425 c -0.13394,0.27293 -0.26788,0.68227 -0.40181,1.09167 h 23.036506 c 0.13394,-0.4094 0.26788,-0.68233 0.40181,-1.09167 z"
       class="fil31"
       inkscape:connector-curvature="0"
       style="clip-rule:evenodd;fill:#9490a6;fill-rule:nonzero;stroke-width:0.13519169;image-rendering:optimizeQuality;shape-rendering:geometricPrecision;text-rendering:geometricPrecision" />
    <path
       id="path1163"
       d="M 96.800531,219.12963 H 73.764025 c 0,0.27293 -0.13394,0.68227 -0.13394,1.09167 h 23.036516 c 0,-0.4094 0,-0.68228 0.13393,-1.09167 z"
       class="fil31"
       inkscape:connector-curvature="0"
       style="clip-rule:evenodd;fill:#9490a6;fill-rule:nonzero;stroke-width:0.13519169;image-rendering:optimizeQuality;shape-rendering:geometricPrecision;text-rendering:geometricPrecision" />
    <path
       id="path1165"
       d="M 96.666601,224.17872 H 73.630085 c 0,0.4094 0,0.68228 0,1.09168 h 23.036516 c 0,-0.27293 0,-0.68233 0,-1.09168 z"
       class="fil31"
       inkscape:connector-curvature="0"
       style="clip-rule:evenodd;fill:#9490a6;fill-rule:nonzero;stroke-width:0.13519169;image-rendering:optimizeQuality;shape-rendering:geometricPrecision;text-rendering:geometricPrecision" />
    <path
       id="path1167"
       d="M 96.800531,229.09135 H 73.764025 c 0,0.4094 0,0.68228 0,1.09168 h 23.036506 c 0,-0.27294 0,-0.68228 0,-1.09168 z"
       class="fil31"
       inkscape:connector-curvature="0"
       style="clip-rule:evenodd;fill:#9490a6;fill-rule:nonzero;stroke-width:0.13519169;image-rendering:optimizeQuality;shape-rendering:geometricPrecision;text-rendering:geometricPrecision" />
    <path
       id="path1169"
       d="M 96.532661,234.00398 H 73.496155 c 0,0.4094 -0.13394,0.68228 -0.13394,1.09168 h 23.036516 c 0.13394,-0.27294 0.13394,-0.68228 0.13393,-1.09168 z"
       class="fil31"
       inkscape:connector-curvature="0"
       style="clip-rule:evenodd;fill:#9490a6;fill-rule:nonzero;stroke-width:0.13519169;image-rendering:optimizeQuality;shape-rendering:geometricPrecision;text-rendering:geometricPrecision" />
    <path
       id="path1171"
       d="M 94.925471,238.91661 H 71.888955 c -0.13394,0.4094 -0.40181,0.68228 -0.66967,1.09168 h 23.036516 c 0.26787,-0.4094 0.40181,-0.68228 0.66967,-1.09168 z"
       class="fil31"
       inkscape:connector-curvature="0"
       style="clip-rule:evenodd;fill:#9490a6;fill-rule:nonzero;stroke-width:0.13519169;image-rendering:optimizeQuality;shape-rendering:geometricPrecision;text-rendering:geometricPrecision" />
    <path
       id="path1173"
       d="M 91.041411,243.82924 H 68.004895 c -0.26788,0.4094 -0.66967,0.68233 -0.93753,1.09167 h 23.036514 c 0.26788,-0.27293 0.66967,-0.68227 0.937532,-1.09167 z"
       class="fil31"
       inkscape:connector-curvature="0"
       style="clip-rule:evenodd;fill:#9490a6;fill-rule:nonzero;stroke-width:0.13519169;image-rendering:optimizeQuality;shape-rendering:geometricPrecision;text-rendering:geometricPrecision" />
    <path
       id="path1175"
       d="m 86.889485,248.74187 h -23.03652 c -0.26788,0.40939 -0.40181,0.68233 -0.66967,1.09167 h 23.03651 c 0.26788,-0.4094 0.40182,-0.68228 0.66968,-1.09167 z"
       class="fil31"
       inkscape:connector-curvature="0"
       style="clip-rule:evenodd;fill:#9490a6;fill-rule:nonzero;stroke-width:0.13519169;image-rendering:optimizeQuality;shape-rendering:geometricPrecision;text-rendering:geometricPrecision" />
    <path
       id="path1177"
       d="m 84.478675,253.65449 h -23.03651 c -0.13394,0.27294 -0.13394,0.68234 -0.26788,1.09168 h 23.03652 c 0.13394,-0.4094 0.13394,-0.68228 0.26788,-1.09168 z"
       class="fil31"
       inkscape:connector-curvature="0"
       style="clip-rule:evenodd;fill:#9490a6;fill-rule:nonzero;stroke-width:0.13519169;image-rendering:optimizeQuality;shape-rendering:geometricPrecision;text-rendering:geometricPrecision" />
    <path
       id="path1179"
       d="m 83.809015,258.56712 h -23.03652 c 0,0.27294 0,0.68234 0,1.09168 h 23.03652 c 0,-0.4094 0,-0.68228 0,-1.09168 z"
       class="fil31"
       inkscape:connector-curvature="0"
       style="clip-rule:evenodd;fill:#9490a6;fill-rule:nonzero;stroke-width:0.13519169;image-rendering:optimizeQuality;shape-rendering:geometricPrecision;text-rendering:geometricPrecision" />
    <path
       id="path1181"
       d="m 72.022895,213.12527 c -0.26788,-0.27294 -1.47327,0.68233 -1.74114,1.09173 -0.26787,0.4094 -0.66967,0.68227 -0.93753,1.22814 -0.26788,0.4094 -0.40181,0.81875 -0.66967,1.36461 -0.13393,0.27293 -0.13393,0.54587 -0.13393,0.8188 -0.13394,0.27293 -0.53574,0.81874 -0.66967,1.09168 -0.13394,0.13646 0,0.13646 -0.13394,0.27293 0.53574,0.4094 0.53574,0.8188 0.8036,1.50108 0,0 0.40181,-0.4094 0.66967,-0.54582 0.26787,-0.13646 1.47326,-0.68233 1.74113,-0.68233 0.8036,-0.4094 1.07147,-0.54586 1.2054,-0.68233 0.13394,-0.13647 0.66967,-0.27293 0.66967,-0.54581 -0.13394,-0.4094 -0.8036,-0.13647 -1.07147,-0.13647 -0.26787,0 -0.8036,0.4094 -1.33933,0.27293 -0.26788,0 -0.53574,-0.40939 -0.40181,-0.95526 0.13393,-0.4094 0.40181,-0.81874 0.80359,-1.22814 0.26788,-0.13647 1.07147,-0.95521 1.33934,-1.22815 0.66966,-0.54586 0.40181,-1.09173 -0.26788,-0.68233 l -1.2054,0.95527 0.26788,-0.27294 c 0.40181,-0.4094 1.33932,-1.2282 1.07146,-1.63754 z"
       class="fil4"
       inkscape:connector-curvature="0"
       style="clip-rule:evenodd;fill:#f58a70;fill-rule:nonzero;stroke-width:0.13519169;image-rendering:optimizeQuality;shape-rendering:geometricPrecision;text-rendering:geometricPrecision" />
    <path
       id="path1183"
       d="m 44.566578,201.66246 0.133937,0.27294 c 0.535729,0.8188 1.071464,1.63754 1.741131,2.31987 0.401812,0.4094 1.071463,0.81875 1.473269,1.22815 0.13393,0.13646 0.26787,0.27293 0.40181,0.54586 -0.53573,1.22815 -1.875064,4.6397 -2.142934,6.14077 0,0 -4.151927,-1.22814 -5.357328,-3.41155 0,0 2.812599,-4.36676 3.750131,-7.09604 z"
       class="fil4"
       inkscape:connector-curvature="0"
       style="clip-rule:evenodd;fill:#f58a70;fill-rule:nonzero;stroke-width:0.13519169;image-rendering:optimizeQuality;shape-rendering:geometricPrecision;text-rendering:geometricPrecision" />
    <path
       id="path1185"
       d="m 45.236244,209.30437 c 0,-1.2282 -0.401812,-2.59281 -1.205401,-3.68449 -0.267875,-0.4094 -0.535734,-0.68233 -0.803599,-0.95526 0.535735,-1.09168 1.071464,-2.18336 1.339334,-3.00216 l 0.133937,0.27294 c 0.535729,0.8188 1.071464,1.63754 1.741131,2.31987 0.401812,0.4094 1.071463,0.81875 1.473269,1.22815 0.13393,0.13646 0.26787,0.27293 0.40181,0.54586 -0.53573,1.22815 -1.875064,4.6397 -2.142934,6.14077 0,0 -0.669661,-0.27293 -1.607197,-0.68233 0.401812,-0.54581 0.669666,-1.36461 0.669666,-2.04689 z"
       class="fil5"
       inkscape:connector-curvature="0"
       style="clip-rule:evenodd;fill:#e86954;fill-rule:nonzero;stroke-width:0.13519169;image-rendering:optimizeQuality;shape-rendering:geometricPrecision;text-rendering:geometricPrecision" />
    <path
       id="path1187"
       d="m 29.164254,279.71872 c 0,0 -0.669667,4.23035 0,4.91262 0.669667,0.68234 9.375329,1.2282 10.178928,0.4094 0.803599,-0.81874 0.401812,-2.1834 -1.473266,-2.72922 -2.009,-0.68233 -2.946532,-0.13646 -4.151933,-0.68233 -1.205401,-0.54581 -0.803599,-2.59275 -0.803599,-2.59275 l -3.75013,0.54581 z"
       class="fil6"
       inkscape:connector-curvature="0"
       style="clip-rule:evenodd;fill:#2c2a43;fill-rule:nonzero;stroke-width:0.13519169;image-rendering:optimizeQuality;shape-rendering:geometricPrecision;text-rendering:geometricPrecision" />
    <path
       id="path1189"
       d="m 43.896911,279.71872 c 0,0 -0.669667,4.23035 0,4.91262 0.669667,0.68234 9.375324,1.2282 10.178924,0.4094 0.8036,-0.81874 0.40181,-2.1834 -1.47327,-2.72922 -2.00899,-0.68233 -2.94653,-0.13646 -4.15192,-0.68233 -1.205406,-0.54581 -0.803604,-2.59275 -0.803604,-2.59275 l -3.75013,0.54581 z"
       class="fil6"
       inkscape:connector-curvature="0"
       style="clip-rule:evenodd;fill:#2c2a43;fill-rule:nonzero;stroke-width:0.13519169;image-rendering:optimizeQuality;shape-rendering:geometricPrecision;text-rendering:geometricPrecision" />
    <path
       id="path1191"
       d="m 27.824921,255.56497 c -2.142933,-12.00867 -2.142933,-20.46931 -2.142933,-24.42668 1.473266,-0.13646 2.812599,-0.27293 4.419797,0.13647 2.812599,0.81874 5.625198,1.50107 8.30386,2.18335 -1.339328,4.77617 -3.616193,20.05992 -3.75013,23.19854 -0.133938,3.95742 -1.071464,24.42673 -1.071464,24.42673 l -5.089464,0.13647 c -0.401812,-3.13868 -0.535734,-24.5632 -0.803599,-25.65488 z"
       class="fil1"
       inkscape:connector-curvature="0"
       style="clip-rule:evenodd;fill:#f0596e;fill-rule:nonzero;stroke-width:0.13519169;image-rendering:optimizeQuality;shape-rendering:geometricPrecision;text-rendering:geometricPrecision" />
    <path
       id="path1193"
       d="m 33.851916,232.36644 c 1.473265,0.40939 2.946531,0.68227 4.419797,1.09167 -1.339334,4.77617 -3.616198,19.92345 -3.750131,23.19854 -0.937531,-1.91048 -4.687661,-8.73358 -6.830594,-13.78262 -1.339333,-3.41156 -2.142932,-7.09604 -2.142932,-10.91699 v 0 c 2.678667,-0.27294 5.223396,-0.4094 8.30386,0.54586 z"
       class="fil9"
       inkscape:connector-curvature="0"
       style="clip-rule:evenodd;fill:#e73c56;fill-rule:nonzero;stroke-width:0.13519169;image-rendering:optimizeQuality;shape-rendering:geometricPrecision;text-rendering:geometricPrecision" />
    <path
       id="path1195"
       d="m 30.503587,231.13829 c 1.875063,0.54581 5.223396,1.36461 7.902058,2.18336 2.009,4.50328 7.366329,16.37543 8.437797,21.15164 1.473263,6.55017 1.473263,26.33716 1.473263,26.33716 h -4.955528 c 0,0 -3.348329,-22.37979 -3.884063,-23.88087 -2.410797,-6.27724 -6.696662,-10.64406 -8.437798,-13.50974 -4.151927,-7.09604 -4.419791,-10.64401 -5.089458,-13.23681 1.473266,0.4094 2.946531,0.54586 4.553729,0.95526 z"
       class="fil1"
       inkscape:connector-curvature="0"
       style="clip-rule:evenodd;fill:#f0596e;fill-rule:nonzero;stroke-width:0.13519169;image-rendering:optimizeQuality;shape-rendering:geometricPrecision;text-rendering:geometricPrecision" />
    <path
       id="path1197"
       d="m 42.557578,214.217 c 1.071463,-2.18341 0.267875,-3.68449 2.410797,-2.86574 3.6162,1.22819 7.2324,9.27944 9.2414,9.82531 2.94653,0.68228 13.79512,-3.13868 13.79512,-3.13868 l 1.07147,2.86574 c 0,0 -14.33086,6.41371 -16.74166,5.73138 -2.4108,-0.54581 -8.571726,-7.50538 -10.044992,-9.82526 -0.535734,-0.81874 -0.401813,-1.77401 0,-2.59275 z"
       class="fil10"
       inkscape:connector-curvature="0"
       style="clip-rule:evenodd;fill:#c6cad6;fill-rule:nonzero;stroke-width:0.13519169;image-rendering:optimizeQuality;shape-rendering:geometricPrecision;text-rendering:geometricPrecision" />
    <path
       id="path1199"
       d="m 42.557578,214.217 c 1.071463,-2.18341 0.267875,-3.68449 2.410797,-2.86574 3.6162,1.22819 7.2324,9.27944 9.2414,9.82531 2.94653,0.68228 13.79512,-3.13868 13.79512,-3.13868 l 1.07147,2.86574 c 0,0 -14.33086,6.41371 -16.74166,5.73138 -2.4108,-0.54581 -8.571726,-7.50538 -10.044992,-9.82526 -0.535734,-0.81874 -0.401813,-1.77401 0,-2.59275 z"
       class="fil12"
       inkscape:connector-curvature="0"
       style="clip-rule:evenodd;fill:#adb1c4;fill-rule:nonzero;stroke-width:0.13519169;image-rendering:optimizeQuality;shape-rendering:geometricPrecision;text-rendering:geometricPrecision" />
    <path
       id="path1201"
       d="m 40.414645,236.46027 c 0,0 -4.419797,-0.27294 -8.705662,-1.63755 -3.214396,-1.09167 -5.893063,-2.86568 -6.428792,-4.23029 0,0 5.089464,-13.37328 8.437792,-17.87651 3.482266,-4.50328 7.500261,-4.63975 7.500261,-4.63975 0,0 2.678667,2.45634 5.089464,3.00221 0,0 -2.276865,9.96172 -3.348334,13.78262 -1.071463,3.95742 -2.678661,11.59927 -2.678661,11.59927 z"
       class="fil10"
       inkscape:connector-curvature="0"
       style="clip-rule:evenodd;fill:#c6cad6;fill-rule:nonzero;stroke-width:0.13519169;image-rendering:optimizeQuality;shape-rendering:geometricPrecision;text-rendering:geometricPrecision" />
    <path
       id="path1203"
       d="m 39.343182,221.44945 c 0,-1.77401 -0.401813,-4.6397 0.401812,-6.68664 0.267875,0.13646 0.401813,0.27293 0.669662,0.54586 1.205401,1.09168 2.27687,2.31988 3.750135,3.00216 0.133938,0.13646 0.401813,0.13646 0.53573,0.13646 -0.53573,2.45634 -1.205396,4.77617 -1.607198,6.41371 -1.071464,3.95742 -2.678667,11.59927 -2.678667,11.59927 0,0 -1.205396,0 -3.080464,-0.4094 2.009,-4.2303 2.142932,-9.82526 2.009,-14.73789 z"
       class="fil12"
       inkscape:connector-curvature="0"
       style="clip-rule:evenodd;fill:#adb1c4;fill-rule:nonzero;stroke-width:0.13519169;image-rendering:optimizeQuality;shape-rendering:geometricPrecision;text-rendering:geometricPrecision" />
    <path
       id="path1205"
       d="m 44.968375,195.52169 c 0,0 3.48227,-2.45634 5.6252,-1.09168 2.00899,1.36461 3.21439,2.45629 3.08046,3.54802 -0.13394,0.95521 -0.93753,3.54797 -0.93753,4.77617 0.13394,1.22814 0.66967,3.00215 0.40181,3.41155 -0.26787,0.4094 -1.6072,-0.13647 -1.74113,-0.13647 -0.13394,0.13647 -2.4108,2.59276 -2.94653,2.59276 -0.669671,0 -3.884067,-3.95742 -3.750134,-5.59497 0,-1.63754 -1.071464,-5.32197 0.401812,-7.50538 z"
       class="fil4"
       inkscape:connector-curvature="0"
       style="clip-rule:evenodd;fill:#f58a70;fill-rule:nonzero;stroke-width:0.13519169;image-rendering:optimizeQuality;shape-rendering:geometricPrecision;text-rendering:geometricPrecision" />
    <path
       id="path1207"
       d="m 49.120305,198.38738 c 0.26788,0.8188 1.33934,2.04694 4.28587,2.31987 2.81259,0.27294 4.82159,-5.59496 -0.13394,-7.91478 -4.95553,-2.31987 -5.759131,-0.54586 -6.8306,-0.54586 -1.071464,-0.13647 -2.008995,0 -2.946531,0.81874 -1.607198,1.36466 -2.812594,3.27509 -1.607198,6.55017 1.205401,3.27514 2.812599,3.82095 2.812599,3.82095 0.401812,-0.54581 0.937531,-1.63754 0.535734,-2.18335 -0.133937,-0.27293 -0.401813,-0.4094 -0.535734,-0.8188 -0.267875,-0.8188 0.669666,-1.91047 1.74113,-1.09168 0.535734,0.4094 0.267875,1.50108 0.401813,2.04689 0.133937,0.54587 0.401812,0.54587 0.669666,0.68233 0.401811,0 1.205401,-0.95521 1.071471,-2.45634 -0.13394,-0.95521 0.40181,-1.77395 0.66966,-0.95521 z"
       class="fil6"
       inkscape:connector-curvature="0"
       style="clip-rule:evenodd;fill:#2c2a43;fill-rule:nonzero;stroke-width:0.13519169;image-rendering:optimizeQuality;shape-rendering:geometricPrecision;text-rendering:geometricPrecision" />
    <path
       id="path1209"
       d="m 62.781495,236.86967 c 0.26788,0 0.40181,0.13646 0.53573,0.13646 0.26788,0.27293 0.93754,0.27293 1.2054,0.27293 0.66967,0 1.6072,0 2.009,0.27294 0.26788,0.13646 2.009,1.36461 1.2054,2.04694 l -0.40181,0.13647 -0.66967,-0.54587 0.40182,0.4094 0.13393,0.27293 c 0,0.27294 -0.26787,0.54587 -0.40181,0.54587 -0.13394,0 -0.26788,-0.27293 -0.40181,-0.4094 v 0 c 0.13393,0.13647 0.40181,0.4094 0,0.68233 -0.40182,0.4094 -0.40182,0 -0.53574,-0.13647 l -0.13393,-0.13646 0.26787,0.4094 c 0.13394,0.27293 -0.53573,0.68228 -0.8036,0.4094 -0.26787,-0.13647 -0.53573,-0.68234 -0.66967,-0.68234 l -0.40181,-0.13646 c -0.40181,-0.13647 -0.8036,-0.4094 -1.20539,-0.8188 l -0.53573,-0.54587 c -0.40182,-0.4094 -0.40182,-0.54586 -0.53574,-0.68233 0.53574,-0.4094 0.8036,-0.81874 0.93753,-1.50107 z"
       class="fil4"
       inkscape:connector-curvature="0"
       style="clip-rule:evenodd;fill:#f58a70;fill-rule:nonzero;stroke-width:0.13519169;image-rendering:optimizeQuality;shape-rendering:geometricPrecision;text-rendering:geometricPrecision" />
    <path
       id="path1211"
       d="m 61.843965,239.59889 2.27686,-3.13862 c 0,0 -8.16992,-7.91479 -11.25039,-11.8722 -3.08046,-3.95737 -6.026993,-11.4628 -8.571727,-12.28155 -2.544729,-0.68233 -5.357329,0.4094 -4.28586,4.36676 1.071464,3.95742 8.303857,9.6888 9.777127,11.46281 1.33933,1.774 10.71466,10.37112 12.18792,11.4628 z"
       class="fil10"
       inkscape:connector-curvature="0"
       style="clip-rule:evenodd;fill:#c6cad6;fill-rule:nonzero;stroke-width:0.13519169;image-rendering:optimizeQuality;shape-rendering:geometricPrecision;text-rendering:geometricPrecision" />
  </g>
</svg>
