<?xml version="1.0" encoding="UTF-8" standalone="no"?>
<!-- Created with Inkscape (http://www.inkscape.org/) -->

<svg
   xmlns:dc="http://purl.org/dc/elements/1.1/"
   xmlns:cc="http://creativecommons.org/ns#"
   xmlns:rdf="http://www.w3.org/1999/02/22-rdf-syntax-ns#"
   xmlns:svg="http://www.w3.org/2000/svg"
   xmlns="http://www.w3.org/2000/svg"
   xmlns:sodipodi="http://sodipodi.sourceforge.net/DTD/sodipodi-0.dtd"
   xmlns:inkscape="http://www.inkscape.org/namespaces/inkscape"
   width="210mm"
   height="297mm"
   viewBox="0 0 210 297"
   version="1.1"
   id="svg2554"
   inkscape:version="0.92.4 (5da689c313, 2019-01-14)"
   sodipodi:docname="projects.svg">
  <defs
     id="defs2548" />
  <sodipodi:namedview
     id="base"
     pagecolor="#ffffff"
     bordercolor="#666666"
     borderopacity="1.0"
     inkscape:pageopacity="0.0"
     inkscape:pageshadow="2"
     inkscape:zoom="0.35"
     inkscape:cx="-127.14286"
     inkscape:cy="560"
     inkscape:document-units="mm"
     inkscape:current-layer="layer1"
     showgrid="false"
     inkscape:window-width="1366"
     inkscape:window-height="705"
     inkscape:window-x="1592"
     inkscape:window-y="116"
     inkscape:window-maximized="1" />
  <metadata
     id="metadata2551">
    <rdf:RDF>
      <cc:Work
         rdf:about="">
        <dc:format>image/svg+xml</dc:format>
        <dc:type
           rdf:resource="http://purl.org/dc/dcmitype/StillImage" />
        <dc:title></dc:title>
      </cc:Work>
    </rdf:RDF>
  </metadata>
  <g
     inkscape:label="Capa 1"
     inkscape:groupmode="layer"
     id="layer1">
    <path
       id="path897"
       d="m 77.787692,64.381765 c 0,0 1.600147,0.355589 3.454289,1.955737 l -2.209728,4.03847 c 0,0 -0.838174,-0.914371 -2.260529,-1.219161 l 1.041368,-4.800445 z"
       class="fil1"
       inkscape:connector-curvature="0"
       style="clip-rule:evenodd;fill:#f0596e;fill-rule:nonzero;stroke-width:0.02539918;image-rendering:optimizeQuality;shape-rendering:geometricPrecision;text-rendering:geometricPrecision" />
    <path
       id="path899"
       d="m 78.168679,66.947082 c 0.203195,-0.711177 0.35559,-1.447753 0.533384,-2.184329 -0.584181,-0.279391 -0.939771,-0.380988 -0.939771,-0.380988 l -1.041365,4.800445 c 0.584181,-0.507984 0.736576,-0.30479 0.838173,-0.355588 0.177795,-0.63498 0.431784,-1.24456 0.609579,-1.854141 z"
       class="fil11"
       inkscape:connector-curvature="0"
       style="clip-rule:evenodd;fill:#eb3f58;fill-rule:nonzero;stroke-width:0.02539918;image-rendering:optimizeQuality;shape-rendering:geometricPrecision;text-rendering:geometricPrecision" />
    <path
       id="path901"
       d="m 69.126572,62.197436 c 0,0 6.248197,-0.63498 9.727886,1.168362 l -1.26996,5.460824 c 0,0 -3.0733,-1.650947 -8.153136,-0.93977 z"
       class="fil1"
       inkscape:connector-curvature="0"
       style="clip-rule:evenodd;fill:#f0596e;fill-rule:nonzero;stroke-width:0.02539918;image-rendering:optimizeQuality;shape-rendering:geometricPrecision;text-rendering:geometricPrecision" />
    <polygon
       transform="matrix(0.02539918,0,0,0.02539918,-47.150873,23.590682)"
       id="polygon903"
       points="4597,1500 4577,1500 4577,2345 4597,2345 "
       class="fil6"
       style="clip-rule:evenodd;fill:#2c2a43;fill-rule:nonzero;image-rendering:optimizeQuality;shape-rendering:geometricPrecision;text-rendering:geometricPrecision" />
    <polygon
       transform="matrix(0.02539918,0,0,0.02539918,-47.150873,23.590682)"
       id="polygon905"
       points="4612,2319 4562,2319 4562,2359 4612,2359 "
       class="fil6"
       style="clip-rule:evenodd;fill:#2c2a43;fill-rule:nonzero;image-rendering:optimizeQuality;shape-rendering:geometricPrecision;text-rendering:geometricPrecision" />
    <polygon
       transform="matrix(0.02539918,0,0,0.02539918,-47.150873,23.590682)"
       id="polygon907"
       points="4632,2350 4543,2350 4543,2370 4632,2370 "
       class="fil6"
       style="clip-rule:evenodd;fill:#2c2a43;fill-rule:nonzero;image-rendering:optimizeQuality;shape-rendering:geometricPrecision;text-rendering:geometricPrecision" />
    <path
       id="path909"
       d="m 60.160661,71.188745 v 3.581284 h 0.888972 v -2.514518 c 0,-0.253992 0.203193,-0.457185 0.457185,-0.457185 h 3.835276 c 0.253992,0 0.457185,0.203193 0.457185,0.457185 v 2.514518 h 0.888972 v -3.581284 c 0,-0.253991 -0.203194,-0.457185 -0.457186,-0.457185 h -5.613218 c -0.253992,0 -0.457186,0.203194 -0.457186,0.457185 z"
       class="fil10"
       inkscape:connector-curvature="0"
       style="clip-rule:evenodd;fill:#c6cad6;fill-rule:nonzero;stroke-width:0.02539918;image-rendering:optimizeQuality;shape-rendering:geometricPrecision;text-rendering:geometricPrecision" />
    <path
       id="path911"
       d="M 76.492335,92.346262 H 50.381977 c -0.863572,0 -1.574749,-0.711176 -1.574749,-1.574749 V 75.100219 c 0,-0.863572 0.711177,-1.574749 1.574749,-1.574749 h 26.110358 c 0.863571,0 1.574749,0.711177 1.574749,1.574749 v 15.671294 c 0,0.863573 -0.711178,1.574749 -1.574749,1.574749 z"
       class="fil6"
       inkscape:connector-curvature="0"
       style="clip-rule:evenodd;fill:#2c2a43;fill-rule:nonzero;stroke-width:0.02539918;image-rendering:optimizeQuality;shape-rendering:geometricPrecision;text-rendering:geometricPrecision" />
    <path
       id="path913"
       d="m 78.041684,78.7831 v -3.682881 c 0,-0.863572 -0.711176,-1.574749 -1.574749,-1.574749 H 50.356578 c -0.863572,0 -1.574749,0.711177 -1.574749,1.574749 V 78.7831 c 0,2.235128 1.803342,4.03847 4.038469,4.03847 h 21.182917 c 2.235128,0 4.038469,-1.803342 4.038469,-4.03847 z"
       class="fil27"
       inkscape:connector-curvature="0"
       style="clip-rule:evenodd;fill:#4c496f;fill-rule:nonzero;stroke-width:0.02539918;image-rendering:optimizeQuality;shape-rendering:geometricPrecision;text-rendering:geometricPrecision" />
    <polygon
       transform="matrix(0.02539918,0,0,0.02539918,-47.150873,23.590682)"
       id="polygon915"
       points="4390,2299 4317,2299 4317,2382 4390,2382 "
       class="fil10"
       style="clip-rule:evenodd;fill:#c6cad6;fill-rule:nonzero;image-rendering:optimizeQuality;shape-rendering:geometricPrecision;text-rendering:geometricPrecision" />
    <polygon
       transform="matrix(0.02539918,0,0,0.02539918,-47.150873,23.590682)"
       id="polygon917"
       points="4365,2339 4342,2339 4342,2359 4365,2359 "
       class="fil6"
       style="clip-rule:evenodd;fill:#2c2a43;fill-rule:nonzero;image-rendering:optimizeQuality;shape-rendering:geometricPrecision;text-rendering:geometricPrecision" />
    <path
       id="path919"
       d="m 55.792002,64.254769 h -0.990568 c 0,0 -0.152395,1.320758 -0.406386,1.498552 0,0 -0.304791,1.574749 0.888971,1.574749 1.447753,0 0.888971,-1.574749 0.888971,-1.574749 -0.253992,-0.152395 -0.406387,-1.498552 -0.406387,-1.498552 z"
       class="fil4"
       inkscape:connector-curvature="0"
       style="clip-rule:evenodd;fill:#f58a70;fill-rule:nonzero;stroke-width:0.02539918;image-rendering:optimizeQuality;shape-rendering:geometricPrecision;text-rendering:geometricPrecision" />
    <path
       id="path921"
       d="m 55.792002,64.254769 h -0.990568 c 0,0 -0.152395,1.320758 -0.406386,1.498552 0,0 -0.304791,1.574749 0.888971,1.574749 1.447753,0 0.888971,-1.574749 0.888971,-1.574749 -0.253992,-0.152395 -0.406387,-1.498552 -0.406387,-1.498552 z"
       class="fil5"
       inkscape:connector-curvature="0"
       style="clip-rule:evenodd;fill:#e86954;fill-rule:nonzero;stroke-width:0.02539918;image-rendering:optimizeQuality;shape-rendering:geometricPrecision;text-rendering:geometricPrecision" />
    <path
       id="path923"
       d="m 56.579377,64.508761 c -0.126996,-0.152395 -0.30479,0.0762 -0.30479,0.0762 0,0 0.228593,-0.888971 0,-1.269959 -0.228593,-0.380988 -0.93977,-0.177795 -0.93977,-0.177795 0,0 -0.736576,-0.203193 -0.939769,0.177795 -0.228593,0.380987 0,1.269959 0,1.269959 0,0 -0.152396,-0.228593 -0.304791,-0.0762 -0.126995,0.152395 0.228593,0.558782 0.304791,0.60958 0,0 0.533382,0.965169 0.939769,0.965169 0.431786,0 0.93977,-0.965169 0.93977,-0.965169 0.0762,-0.0508 0.431786,-0.431786 0.30479,-0.60958 z"
       class="fil4"
       inkscape:connector-curvature="0"
       style="clip-rule:evenodd;fill:#f58a70;fill-rule:nonzero;stroke-width:0.02539918;image-rendering:optimizeQuality;shape-rendering:geometricPrecision;text-rendering:geometricPrecision" />
    <path
       id="path925"
       d="m 55.157023,63.492794 c 0,0 -0.558782,0.101597 -0.609581,0.380988 -0.0254,0.152395 0,0.30479 0.0254,0.431786 0.0254,0.0762 0.0762,0.482584 0.0508,0.482584 h -0.0762 c -0.0762,-0.0508 -0.126995,-0.152395 -0.177794,-0.228592 -0.101597,-0.152396 -0.253992,-0.126996 -0.30479,-0.0254 0,0 -0.126996,-1.447754 0.482584,-1.498552 0.609581,-0.0508 0.609581,0.457185 0.609581,0.457185 z"
       class="fil6"
       inkscape:connector-curvature="0"
       style="clip-rule:evenodd;fill:#2c2a43;fill-rule:nonzero;stroke-width:0.02539918;image-rendering:optimizeQuality;shape-rendering:geometricPrecision;text-rendering:geometricPrecision" />
    <path
       id="path927"
       d="m 55.512611,63.492794 c 0,0 0.558782,0.101597 0.609581,0.380988 0.0254,0.152395 0,0.30479 -0.0254,0.431786 -0.0254,0.0762 -0.0762,0.482584 -0.0508,0.482584 h 0.0762 c 0.0762,-0.0508 0.126996,-0.152395 0.177794,-0.228592 0.101597,-0.152396 0.253992,-0.126996 0.304791,-0.0254 0,0 0.126996,-1.447754 -0.482585,-1.498552 -0.609581,-0.0508 -0.609581,0.457185 -0.609581,0.457185 z"
       class="fil6"
       inkscape:connector-curvature="0"
       style="clip-rule:evenodd;fill:#2c2a43;fill-rule:nonzero;stroke-width:0.02539918;image-rendering:optimizeQuality;shape-rendering:geometricPrecision;text-rendering:geometricPrecision" />
    <path
       id="path929"
       d="m 56.401583,63.238802 c 0,0 -0.0508,-0.330189 -0.406387,-0.482584 -0.279391,-0.126996 -0.711177,-0.177795 -1.168363,-0.0762 -0.761975,0.203194 -0.787374,0.990568 -0.482584,1.219161 0.228593,0.177794 0.380988,0.279391 0.711177,0.279391 1.066766,0 1.498552,-0.63498 1.346157,-0.93977 z"
       class="fil6"
       inkscape:connector-curvature="0"
       style="clip-rule:evenodd;fill:#2c2a43;fill-rule:nonzero;stroke-width:0.02539918;image-rendering:optimizeQuality;shape-rendering:geometricPrecision;text-rendering:geometricPrecision" />
    <path
       id="path931"
       d="m 56.198389,65.727922 c -0.0508,1.346156 -0.888971,1.193761 -0.888971,1.193761 0,0 -0.838173,0.126996 -0.888971,-1.193761 0,0 -1.320758,0.380988 -1.981136,0.812774 0,0 0.27939,1.168362 0.30479,2.46372 l 0.761975,2.946305 1.803342,0.101596 1.803342,-0.101596 0.761975,-2.946305 c 0.0254,-1.295358 0.30479,-2.46372 0.30479,-2.46372 -0.660378,-0.431786 -1.981136,-0.812774 -1.981136,-0.812774 z"
       class="fil17"
       inkscape:connector-curvature="0"
       style="clip-rule:evenodd;fill:#25bfd1;fill-rule:nonzero;stroke-width:0.02539918;image-rendering:optimizeQuality;shape-rendering:geometricPrecision;text-rendering:geometricPrecision" />
    <path
       id="path933"
       d="m 56.401583,71.442737 h -2.18433 C 54.01406,70.73156 53.37908,68.496432 52.896496,67.302671 c 0.380987,0.228593 0.711177,0.533383 0.990568,0.888971 0.330189,0.431786 0.787375,1.193762 1.371555,1.193762 0.152396,0 0.279391,-0.0508 0.457186,-0.126996 0.787375,-0.482585 1.193761,-1.473153 1.981136,-1.930338 -0.482585,1.193761 -1.092165,3.40349 -1.295358,4.089268 z"
       class="fil20"
       inkscape:connector-curvature="0"
       style="clip-rule:evenodd;fill:#2e96ad;fill-rule:nonzero;stroke-width:0.02539918;image-rendering:optimizeQuality;shape-rendering:geometricPrecision;text-rendering:geometricPrecision" />
    <path
       id="path935"
       d="m 58.66211,73.144482 c 0,-1.041366 -1.295359,-1.727144 -1.295359,-1.727144 h -4.31786 c 0,0 -1.295358,0.685778 -1.295358,1.727144 0,0.177794 0.0508,0.457185 0.101597,0.787375 h 1.422353 c -0.0508,0.101596 -0.101596,0.203193 -0.152394,0.279391 l -0.0508,0.0762 c 0.203193,0 0.431785,0 0.634979,0 0.126996,0 0.279391,0 0.406387,0 0.0762,0 0.0508,0.0254 0.0254,-0.0762 -0.0254,-0.152396 -0.126996,-0.253992 -0.0254,-0.431787 0.0762,-0.126995 0.457185,-0.253991 0.60958,-0.253991 0.0254,0 0.0762,0 0.101597,0 0.228592,0 0.457185,0 0.685778,0 0.101596,0 0.152395,0.0254 0.253991,0.0508 0.0762,0 0.279391,0 0.380988,0.126996 0.0508,0.0762 0.0508,0.152395 0.0762,0.253992 l -0.0508,0.355588 h 1.295357 c -0.101597,-0.126997 -0.177794,-0.253994 -0.253992,-0.35559 h 1.269959 c 0.0762,-0.355589 0.101597,-0.63498 0.101597,-0.787375 z"
       class="fil1"
       inkscape:connector-curvature="0"
       style="clip-rule:evenodd;fill:#f0596e;fill-rule:nonzero;stroke-width:0.02539918;image-rendering:optimizeQuality;shape-rendering:geometricPrecision;text-rendering:geometricPrecision" />
    <path
       id="path937"
       d="m 58.66211,73.144482 c 0,-1.041366 -1.295359,-1.727144 -1.295359,-1.727144 h -4.31786 c 0,0 -1.295358,0.685778 -1.295358,1.727144 0,0.177794 0.0508,0.457185 0.101597,0.787375 h 1.422353 c -0.0508,0.101596 -0.101596,0.203193 -0.152394,0.279391 l -0.0508,0.0762 c 0.203193,0 0.431785,0 0.634979,0 0.126996,0 0.279391,0 0.406387,0 0.0762,0 0.0508,0.0254 0.0254,-0.0762 -0.0254,-0.152396 -0.126996,-0.253992 -0.0254,-0.431787 0.0762,-0.126995 0.457185,-0.253991 0.60958,-0.253991 0.0254,0 0.0762,0 0.101597,0 0.228592,0 0.457185,0 0.685778,0 0.101596,0 0.152395,0.0254 0.253991,0.0508 0.0762,0 0.279391,0 0.380988,0.126996 0.0508,0.0762 0.0508,0.152395 0.0762,0.253992 l -0.0508,0.355588 h 1.295357 c -0.101597,-0.126997 -0.177794,-0.253994 -0.253992,-0.35559 h 1.269959 c 0.0762,-0.355589 0.101597,-0.63498 0.101597,-0.787375 z"
       class="fil28"
       inkscape:connector-curvature="0"
       style="clip-rule:evenodd;fill:#bf344d;fill-rule:nonzero;stroke-width:0.02539918;image-rendering:optimizeQuality;shape-rendering:geometricPrecision;text-rendering:geometricPrecision" />
    <path
       id="path939"
       d="m 52.439311,66.540696 c 0,0 -1.650947,3.555885 -1.523951,4.038469 0.0254,0.126996 2.031934,1.320757 2.971704,1.142963 l 0.380987,-0.0762 c 0,0 -1.396954,-5.156033 -1.82874,-5.130634 z"
       class="fil17"
       inkscape:connector-curvature="0"
       style="clip-rule:evenodd;fill:#25bfd1;fill-rule:nonzero;stroke-width:0.02539918;image-rendering:optimizeQuality;shape-rendering:geometricPrecision;text-rendering:geometricPrecision" />
    <path
       id="path941"
       d="m 58.179525,66.540696 c 0,0 1.650947,3.555885 1.523951,4.038469 -0.0254,0.126996 -2.031934,1.320757 -2.971704,1.142963 l -0.380988,-0.0762 c 0,0 1.396955,-5.156034 1.828741,-5.130635 z"
       class="fil17"
       inkscape:connector-curvature="0"
       style="clip-rule:evenodd;fill:#25bfd1;fill-rule:nonzero;stroke-width:0.02539918;image-rendering:optimizeQuality;shape-rendering:geometricPrecision;text-rendering:geometricPrecision" />
    <path
       id="path943"
       d="m 53.683871,71.747527 c -0.0254,0 -0.0508,0 -0.0508,0 -0.279391,-0.482584 -0.558782,-0.965169 -0.736577,-1.473152 -0.228592,-0.660379 0,-1.320758 0.126996,-1.981136 0.0508,-0.177794 0.0508,-0.355589 0.0508,-0.507984 0.533383,1.498552 1.168362,3.835276 1.193761,3.860676 v 0 c 0,0 0,0 0,0 v 0 0 l -0.380987,0.0762 v 0 c -0.0508,0 -0.126996,0.0254 -0.203194,0.0254 z"
       class="fil20"
       inkscape:connector-curvature="0"
       style="clip-rule:evenodd;fill:#2e96ad;fill-rule:nonzero;stroke-width:0.02539918;image-rendering:optimizeQuality;shape-rendering:geometricPrecision;text-rendering:geometricPrecision" />
    <path
       id="path945"
       d="m 56.731772,71.722128 c 0,0 0,0 0,0 l -0.380988,-0.0762 v 0 l 0.380988,0.0762 c 0,0 0,0 0,-10e-7 z m -0.380988,-0.0762 z m 0,0 c 0,0 0,0 0,0 0,0 0,0 0,0 z m 0,0 z m 0,0 z m 0,0 z m 0,0 c 0,0 0,0 0,0 0,0 0,0 0,0 z"
       class="fil29"
       inkscape:connector-curvature="0"
       style="clip-rule:evenodd;fill:#7e2c41;fill-rule:nonzero;stroke-width:0.02539918;image-rendering:optimizeQuality;shape-rendering:geometricPrecision;text-rendering:geometricPrecision" />
    <path
       id="path947"
       d="m 56.909566,71.747527 c -0.0762,0 -0.126996,0 -0.203193,-0.0254 0,0 0,0 0,0 l -0.380988,-0.0762 v 0 0 0 c 0,0 0,0 0,0 v 0 0 0 0 c 0,0 0,0 0,0 v 0 c 0,0 0,0 0,0 0,0 0,0 0,0 0.0254,-0.101597 0.60958,-2.209729 1.117564,-3.682881 -0.0254,0.279391 -0.0254,0.533382 -0.0254,0.838173 0,0.660378 0,1.320757 0.0254,1.981136 0,0.330189 -0.0508,0.660379 -0.177794,0.939769 -0.126996,0.0254 -0.228593,0.0254 -0.355589,0.0254 z"
       class="fil20"
       inkscape:connector-curvature="0"
       style="clip-rule:evenodd;fill:#2e96ad;fill-rule:nonzero;stroke-width:0.02539918;image-rendering:optimizeQuality;shape-rendering:geometricPrecision;text-rendering:geometricPrecision" />
    <path
       id="path949"
       d="m 53.658471,79.316483 c 0,0 -1.041366,1.24456 -1.168362,1.498551 -0.126996,0.253992 0.177794,0.609581 0.584181,0.457186 0.406387,-0.126996 0.63498,-0.406387 0.660379,-0.584182 0,-0.177794 0.228593,-0.279391 0.330189,-0.279391 0.101597,-0.0254 0.63498,-0.634979 0.584181,-0.812773 -0.0508,-0.177795 -0.330189,-0.355589 -0.330189,-0.355589 l -0.634979,0.0508 z"
       class="fil3"
       inkscape:connector-curvature="0"
       style="clip-rule:evenodd;fill:#222124;fill-rule:nonzero;stroke-width:0.02539918;image-rendering:optimizeQuality;shape-rendering:geometricPrecision;text-rendering:geometricPrecision" />
    <path
       id="path951"
       d="m 56.78257,79.316483 c 0,0 1.041367,1.24456 1.168363,1.498551 0.126995,0.253992 -0.177794,0.609581 -0.584182,0.457186 -0.406386,-0.126996 -0.634979,-0.406387 -0.660378,-0.584182 0,-0.177794 -0.228593,-0.279391 -0.33019,-0.279391 -0.101596,-0.0254 -0.634979,-0.634979 -0.584181,-0.812773 0.0508,-0.177795 0.33019,-0.355589 0.33019,-0.355589 l 0.634979,0.0508 z"
       class="fil3"
       inkscape:connector-curvature="0"
       style="clip-rule:evenodd;fill:#222124;fill-rule:nonzero;stroke-width:0.02539918;image-rendering:optimizeQuality;shape-rendering:geometricPrecision;text-rendering:geometricPrecision" />
    <path
       id="path953"
       d="m 54.039459,73.093684 c -0.126996,-0.304791 -0.152395,-0.914371 -0.990568,-0.914371 -1.625548,0 -1.24456,1.295359 -1.219161,1.498552 0.253992,1.930337 1.422354,5.765614 1.422354,5.765614 h 1.625548 c 0,0 -0.584181,-4.698848 -0.685778,-5.435425 0,-0.101596 -0.0762,-0.685778 -0.152395,-0.888971 z"
       class="fil1"
       inkscape:connector-curvature="0"
       style="clip-rule:evenodd;fill:#f0596e;fill-rule:nonzero;stroke-width:0.02539918;image-rendering:optimizeQuality;shape-rendering:geometricPrecision;text-rendering:geometricPrecision" />
    <path
       id="path955"
       d="m 56.426982,73.093684 c 0.126996,-0.304791 0.152395,-0.914371 0.990568,-0.914371 1.625548,0 1.24456,1.295359 1.21916,1.498552 -0.253991,1.930337 -1.422354,5.765614 -1.422354,5.765614 h -1.625547 c 0,0 0.584181,-4.698848 0.685778,-5.435425 0.0254,-0.101596 0.0762,-0.685778 0.152395,-0.888971 z"
       class="fil1"
       inkscape:connector-curvature="0"
       style="clip-rule:evenodd;fill:#f0596e;fill-rule:nonzero;stroke-width:0.02539918;image-rendering:optimizeQuality;shape-rendering:geometricPrecision;text-rendering:geometricPrecision" />
    <polygon
       transform="matrix(0.02539918,0,0,0.02539918,-47.150873,23.590682)"
       id="polygon957"
       points="4127,1894 3940,1894 3940,1905 4127,1905 "
       class="fil6"
       style="clip-rule:evenodd;fill:#2c2a43;fill-rule:nonzero;image-rendering:optimizeQuality;shape-rendering:geometricPrecision;text-rendering:geometricPrecision" />
    <path
       id="path959"
       d="m 58.382719,68.394836 h -6.146602 c 0,0 -0.330189,0 -0.279391,0.380987 0.0508,0.380988 0.838173,2.946305 0.990568,2.946305 0.279391,0 2.362124,0 2.362124,0 0,0 2.057333,0 2.362124,0 0.126995,0 0.939769,-2.590716 0.990568,-2.946305 0.0508,-0.380987 -0.279391,-0.380987 -0.279391,-0.380987 z"
       class="fil6"
       inkscape:connector-curvature="0"
       style="clip-rule:evenodd;fill:#2c2a43;fill-rule:nonzero;stroke-width:0.02539918;image-rendering:optimizeQuality;shape-rendering:geometricPrecision;text-rendering:geometricPrecision" />
    <path
       id="path961"
       d="m 55.56341,70.198177 c 0,0.152395 -0.101597,0.253992 -0.253992,0.253992 -0.152395,0 -0.253992,-0.101597 -0.253992,-0.253992 0,-0.152395 0.101597,-0.253992 0.253992,-0.253992 0.152395,0 0.253992,0.101597 0.253992,0.253992 z"
       class="fil10"
       inkscape:connector-curvature="0"
       style="clip-rule:evenodd;fill:#c6cad6;fill-rule:nonzero;stroke-width:0.02539918;image-rendering:optimizeQuality;shape-rendering:geometricPrecision;text-rendering:geometricPrecision" />
    <polygon
       transform="matrix(0.02539918,0,0,0.02539918,-47.150873,23.590682)"
       id="polygon963"
       points="4254,2613 4265,2579 4236,2557 4272,2557 4283,2523 4295,2557 4331,2557 4302,2579 4313,2613 4283,2592 "
       class="fil10"
       style="clip-rule:evenodd;fill:#c6cad6;fill-rule:nonzero;image-rendering:optimizeQuality;shape-rendering:geometricPrecision;text-rendering:geometricPrecision" />
    <polygon
       transform="matrix(0.02539918,0,0,0.02539918,-47.150873,23.590682)"
       id="polygon965"
       points="4384,2613 4395,2579 4366,2557 4402,2557 4413,2523 4424,2557 4461,2557 4431,2579 4442,2613 4413,2592 "
       class="fil10"
       style="clip-rule:evenodd;fill:#c6cad6;fill-rule:nonzero;image-rendering:optimizeQuality;shape-rendering:geometricPrecision;text-rendering:geometricPrecision" />
    <polygon
       transform="matrix(0.02539918,0,0,0.02539918,-47.150873,23.590682)"
       id="polygon967"
       points="4513,2613 4525,2579 4495,2557 4532,2557 4543,2523 4554,2557 4590,2557 4561,2579 4572,2613 4543,2592 "
       class="fil10"
       style="clip-rule:evenodd;fill:#c6cad6;fill-rule:nonzero;image-rendering:optimizeQuality;shape-rendering:geometricPrecision;text-rendering:geometricPrecision" />
    <polygon
       transform="matrix(0.02539918,0,0,0.02539918,-47.150873,23.590682)"
       id="polygon969"
       points="4643,2613 4654,2579 4625,2557 4661,2557 4673,2523 4684,2557 4720,2557 4691,2579 4702,2613 4673,2592 "
       class="fil10"
       style="clip-rule:evenodd;fill:#c6cad6;fill-rule:nonzero;image-rendering:optimizeQuality;shape-rendering:geometricPrecision;text-rendering:geometricPrecision" />
    <polygon
       transform="matrix(0.02539918,0,0,0.02539918,-47.150873,23.590682)"
       id="polygon971"
       points="4773,2613 4784,2579 4755,2557 4791,2557 4802,2523 4814,2557 4850,2557 4821,2579 4832,2613 4802,2592 "
       class="fil10"
       style="clip-rule:evenodd;fill:#c6cad6;fill-rule:nonzero;image-rendering:optimizeQuality;shape-rendering:geometricPrecision;text-rendering:geometricPrecision" />
  </g>
</svg>
